G04 ---------------------------- Layer name :BOTTOM SILK LAYER*
G04 easyEDA 0.1*
G04 Scale: 100 percent, Rotated: No, Reflected: No *
G04 Dimensions in inches *
G04 leading zeros omitted , absolute positions ,2 integer and 4 * 
%FSLAX24Y24*%
%MOIN*%
G90*
G70D02*

%ADD11C,0.004000*%
%ADD12C,0.005000*%

%LPD*%
G54D11*
G01X4905Y390D02*
G01X4905Y199D01*
G01X4905Y390D02*
G01X4786Y390D01*
G01X4905Y299D02*
G01X4831Y299D01*
G01X4905Y199D02*
G01X4786Y199D01*
G01X4727Y326D02*
G01X4727Y199D01*
G01X4727Y290D02*
G01X4700Y317D01*
G01X4681Y326D01*
G01X4653Y326D01*
G01X4635Y317D01*
G01X4627Y290D01*
G01X4627Y199D01*
G01X4567Y390D02*
G01X4567Y199D01*
G01X4476Y326D02*
G01X4567Y236D01*
G01X4530Y272D02*
G01X4467Y199D01*
G01X4407Y390D02*
G01X4398Y381D01*
G01X4388Y390D01*
G01X4398Y399D01*
G01X4407Y390D01*
G01X4398Y326D02*
G01X4398Y199D01*
G01X4188Y390D02*
G01X4188Y199D01*
G01X4188Y390D02*
G01X4107Y390D01*
G01X4080Y381D01*
G01X4069Y372D01*
G01X4061Y354D01*
G01X4061Y336D01*
G01X4069Y317D01*
G01X4080Y308D01*
G01X4107Y299D01*
G01X4188Y299D01*
G01X4125Y299D02*
G01X4061Y199D01*
G01X3955Y326D02*
G01X3973Y317D01*
G01X3992Y299D01*
G01X4001Y272D01*
G01X4001Y254D01*
G01X3992Y226D01*
G01X3973Y208D01*
G01X3955Y199D01*
G01X3928Y199D01*
G01X3909Y208D01*
G01X3892Y226D01*
G01X3882Y254D01*
G01X3882Y272D01*
G01X3892Y299D01*
G01X3909Y317D01*
G01X3928Y326D01*
G01X3955Y326D01*
G01X3823Y390D02*
G01X3823Y199D01*
G01X3823Y299D02*
G01X3805Y317D01*
G01X3786Y326D01*
G01X3759Y326D01*
G01X3740Y317D01*
G01X3723Y299D01*
G01X3713Y272D01*
G01X3713Y254D01*
G01X3723Y226D01*
G01X3740Y208D01*
G01X3759Y199D01*
G01X3786Y199D01*
G01X3805Y208D01*
G01X3823Y226D01*
G01X3609Y326D02*
G01X3626Y317D01*
G01X3644Y299D01*
G01X3653Y272D01*
G01X3653Y254D01*
G01X3644Y226D01*
G01X3626Y208D01*
G01X3609Y199D01*
G01X3580Y199D01*
G01X3563Y208D01*
G01X3544Y226D01*
G01X3536Y254D01*
G01X3536Y272D01*
G01X3544Y299D01*
G01X3563Y317D01*
G01X3580Y326D01*
G01X3609Y326D01*
G01X3448Y390D02*
G01X3448Y236D01*
G01X3440Y208D01*
G01X3421Y199D01*
G01X3403Y199D01*
G01X3476Y326D02*
G01X3411Y326D01*
G01X3342Y390D02*
G01X3334Y381D01*
G01X3325Y390D01*
G01X3334Y399D01*
G01X3342Y390D01*
G01X3334Y326D02*
G01X3334Y199D01*
G01X3155Y299D02*
G01X3173Y317D01*
G01X3192Y326D01*
G01X3219Y326D01*
G01X3238Y317D01*
G01X3255Y299D01*
G01X3265Y272D01*
G01X3265Y254D01*
G01X3255Y226D01*
G01X3238Y208D01*
G01X3219Y199D01*
G01X3192Y199D01*
G01X3173Y208D01*
G01X3155Y226D01*
G01X2996Y299D02*
G01X3005Y317D01*
G01X3032Y326D01*
G01X3059Y326D01*
G01X3086Y317D01*
G01X3096Y299D01*
G01X3086Y281D01*
G01X3069Y272D01*
G01X3023Y263D01*
G01X3005Y254D01*
G01X2996Y236D01*
G01X2996Y226D01*
G01X3005Y208D01*
G01X3032Y199D01*
G01X3059Y199D01*
G01X3086Y208D01*
G01X3096Y226D01*
G01X2796Y390D02*
G01X2796Y199D01*
G01X2796Y390D02*
G01X2723Y199D01*
G01X2650Y390D02*
G01X2723Y199D01*
G01X2650Y390D02*
G01X2650Y199D01*
G01X2463Y363D02*
G01X2480Y381D01*
G01X2509Y390D01*
G01X2544Y390D01*
G01X2571Y381D01*
G01X2590Y363D01*
G01X2590Y345D01*
G01X2580Y326D01*
G01X2571Y317D01*
G01X2553Y308D01*
G01X2500Y290D01*
G01X2480Y281D01*
G01X2471Y272D01*
G01X2463Y254D01*
G01X2463Y226D01*
G01X2480Y208D01*
G01X2509Y199D01*
G01X2544Y199D01*
G01X2571Y208D01*
G01X2590Y226D01*
G01X2267Y345D02*
G01X2276Y363D01*
G01X2294Y381D01*
G01X2311Y390D01*
G01X2348Y390D01*
G01X2367Y381D01*
G01X2384Y363D01*
G01X2394Y345D01*
G01X2403Y317D01*
G01X2403Y272D01*
G01X2394Y245D01*
G01X2384Y226D01*
G01X2367Y208D01*
G01X2348Y199D01*
G01X2311Y199D01*
G01X2294Y208D01*
G01X2276Y226D01*
G01X2267Y245D01*
G01X2267Y272D01*
G01X2311Y272D02*
G01X2267Y272D01*
G01X2207Y390D02*
G01X2207Y199D01*
G01X2207Y390D02*
G01X2088Y390D01*
G01X2207Y299D02*
G01X2134Y299D01*
G01X2207Y199D02*
G01X2088Y199D01*
G01X1973Y390D02*
G01X1992Y381D01*
G01X2009Y363D01*
G01X2019Y345D01*
G01X2028Y317D01*
G01X2028Y272D01*
G01X2019Y245D01*
G01X2009Y226D01*
G01X1992Y208D01*
G01X1973Y199D01*
G01X1938Y199D01*
G01X1919Y208D01*
G01X1901Y226D01*
G01X1892Y245D01*
G01X1882Y272D01*
G01X1882Y317D01*
G01X1892Y345D01*
G01X1901Y363D01*
G01X1919Y381D01*
G01X1938Y390D01*
G01X1973Y390D01*
G01X1946Y236D02*
G01X1892Y181D01*
G01X1696Y390D02*
G01X1786Y199D01*
G01X1823Y390D02*
G01X1696Y390D01*
G01X1496Y390D02*
G01X1496Y199D01*
G01X1300Y345D02*
G01X1309Y363D01*
G01X1326Y381D01*
G01X1344Y390D01*
G01X1380Y390D01*
G01X1400Y381D01*
G01X1417Y363D01*
G01X1426Y345D01*
G01X1436Y317D01*
G01X1436Y272D01*
G01X1426Y245D01*
G01X1417Y226D01*
G01X1400Y208D01*
G01X1380Y199D01*
G01X1344Y199D01*
G01X1326Y208D01*
G01X1309Y226D01*
G01X1300Y245D01*
G54D12*
G01X4901Y986D02*
G01X4792Y700D01*
G01X4683Y986D02*
G01X4792Y700D01*
G01X4593Y809D02*
G01X4429Y809D01*
G01X4429Y836D01*
G01X4443Y863D01*
G01X4457Y877D01*
G01X4484Y890D01*
G01X4525Y890D01*
G01X4552Y877D01*
G01X4579Y850D01*
G01X4593Y809D01*
G01X4593Y781D01*
G01X4579Y740D01*
G01X4552Y713D01*
G01X4525Y700D01*
G01X4484Y700D01*
G01X4457Y713D01*
G01X4429Y740D01*
G01X4339Y890D02*
G01X4339Y700D01*
G01X4339Y809D02*
G01X4326Y850D01*
G01X4299Y877D01*
G01X4271Y890D01*
G01X4230Y890D01*
G01X3990Y850D02*
G01X4004Y877D01*
G01X4045Y890D01*
G01X4086Y890D01*
G01X4127Y877D01*
G01X4140Y850D01*
G01X4127Y822D01*
G01X4099Y809D01*
G01X4031Y795D01*
G01X4004Y781D01*
G01X3990Y754D01*
G01X3990Y740D01*
G01X4004Y713D01*
G01X4045Y700D01*
G01X4086Y700D01*
G01X4127Y713D01*
G01X4140Y740D01*
G01X3900Y986D02*
G01X3887Y972D01*
G01X3873Y986D01*
G01X3887Y1000D01*
G01X3900Y986D01*
G01X3887Y890D02*
G01X3887Y700D01*
G01X3715Y890D02*
G01X3742Y877D01*
G01X3769Y850D01*
G01X3783Y809D01*
G01X3783Y781D01*
G01X3769Y740D01*
G01X3742Y713D01*
G01X3715Y700D01*
G01X3674Y700D01*
G01X3647Y713D01*
G01X3619Y740D01*
G01X3606Y781D01*
G01X3606Y809D01*
G01X3619Y850D01*
G01X3647Y877D01*
G01X3674Y890D01*
G01X3715Y890D01*
G01X3516Y890D02*
G01X3516Y700D01*
G01X3516Y836D02*
G01X3475Y877D01*
G01X3448Y890D01*
G01X3407Y890D01*
G01X3379Y877D01*
G01X3366Y836D01*
G01X3366Y700D01*
G01X3066Y931D02*
G01X3039Y945D01*
G01X2998Y986D01*
G01X2998Y700D01*
G01X2894Y768D02*
G01X2908Y754D01*
G01X2894Y740D01*
G01X2880Y754D01*
G01X2894Y768D01*
G01X2709Y986D02*
G01X2749Y972D01*
G01X2777Y931D01*
G01X2790Y863D01*
G01X2790Y822D01*
G01X2777Y754D01*
G01X2749Y713D01*
G01X2709Y700D01*
G01X2681Y700D01*
G01X2640Y713D01*
G01X2613Y754D01*
G01X2599Y822D01*
G01X2599Y863D01*
G01X2613Y931D01*
G01X2640Y972D01*
G01X2681Y986D01*
G01X2709Y986D01*

M00*
M02*