;PTH Drill file created by EasyEDA 
M48
;Holesize 1 = 0.032 INCH
T01C0.032
;Holesize 2 = 0.028 INCH
T02C0.028
;Holesize 3 = 0.035 INCH
T03C0.035
INCH,00.0000
%
G05
G90
T01
X002500Y004500
X002500Y003500
X005500Y003500
X005500Y004500
X002500Y002500
X002500Y001500
X005500Y002500
X005500Y001500
X000500Y000500
X000500Y005500
X000500Y003500
X000500Y002500
X000500Y001500
X000500Y004500
X009700Y000700
T02
X009389Y005369
X010389Y005369
X007889Y003269
X008889Y003269
X007189Y000669
X008189Y000669
X007189Y005369
X008189Y005369
T03
X009900Y002100
X006900Y002100
M30
